<svg xmlns="http://www.w3.org/2000/svg" width="125.924" height="196" viewBox="0 0 125.924 196"><g id="Layer_1" data-name="Layer 1" transform="translate(1.5 1.5)"><path id="Path_4540" data-name="Path 4540" d="M49.709,140.613a3.941,3.941,0,0,1-3.119-1.607,5.643,5.643,0,0,1-1.339-3.75v-7.515a53.237,53.237,0,0,1,5.026-17.85,83.734,83.734,0,0,1,9.153-14.62q5.246-6.712,10.382-12.478a80.732,80.732,0,0,0,8.712-11.674,24.579,24.579,0,0,0,3.8-11.8q.662-6.971-2.127-11.674A19.2,19.2,0,0,0,72.6,40.4a21.328,21.328,0,0,0-10.162-2.552q-9.831,0-15.739,5.766T38.554,61.194A11.2,11.2,0,0,1,36.1,65.763a5.64,5.64,0,0,1-4.238,1.607H8.636A4.6,4.6,0,0,1,5.06,65.495,7.31,7.31,0,0,1,3.5,60.658,59.861,59.861,0,0,1,7.738,39.736,56.456,56.456,0,0,1,19.57,21.35,57.272,57.272,0,0,1,38.538,8.337Q49.693,3.516,64.439,3.5q16.07,0,26.673,4.837A46.687,46.687,0,0,1,108.08,20.814a48.053,48.053,0,0,1,11.28,32.864,49.663,49.663,0,0,1-3.466,17.85,77.961,77.961,0,0,1-7.814,14.62q-4.585,6.712-9.595,13.013a119.983,119.983,0,0,0-8.933,12.746,49.02,49.02,0,0,0-5.687,13.423c-.3,1.434-.551,2.82-.788,4.159s-.41,2.726-.551,4.159a17.276,17.276,0,0,1-2.458,5.231,4.756,4.756,0,0,1-4.017,1.749H49.709Zm0,48.887a5.343,5.343,0,0,1-5.577-5.577V161.6a5.569,5.569,0,0,1,1.56-3.907,5.232,5.232,0,0,1,4.017-1.67h25a5.707,5.707,0,0,1,5.577,5.577v22.324a5.232,5.232,0,0,1-1.67,4.017,5.569,5.569,0,0,1-3.907,1.56Z" transform="translate(0 0)" fill="none" stroke="#000" stroke-width="10"></path></g></svg>