<?xml version="1.0" encoding="utf-8"?>
<!-- Svg Vector Icons : http://www.onlinewebfonts.com/icon -->
<!DOCTYPE svg PUBLIC "-//W3C//DTD SVG 1.1//EN" "http://www.w3.org/Graphics/SVG/1.1/DTD/svg11.dtd">
<svg version="1.1" xmlns="http://www.w3.org/2000/svg" xmlns:xlink="http://www.w3.org/1999/xlink" x="0px" y="0px" viewBox="0 0 256 256" enable-background="new 0 0 256 256" xml:space="preserve">
<metadata> Svg Vector Icons : http://www.onlinewebfonts.com/icon </metadata>
<g><g><g><path fill="#000000" d="M110.3,10.5c-3.1,0.6-7.5,2.7-9.3,4.5c-0.9,0.9-2.3,2.7-2.9,4l-1.3,2.5l-0.1,14.1l-0.1,14.1l-2.1,0.6c-8.8,2.6-16.2,9.9-20,19.6l-1.3,3.2L73,148.7c-0.1,65.9,0,76,0.6,78.8c2.2,9.3,8.9,15.6,19,17.6c5.5,1.1,65.1,1.2,71,0c10.1-1.9,16.7-8.1,18.6-17.3c1.1-5.2,1.1-151,0-155.2c-2.5-9.7-11.2-19.4-20.3-22.2l-2.6-0.8l-0.1-14.1l-0.1-14.1l-1.4-2.6c-2.5-4.4-5.9-6.8-11.7-8.2c-2.4-0.5-6.5-0.7-18.3-0.7C119.3,10.1,111.5,10.2,110.3,10.5z M144.7,18.4c1.8,0.4,3.1,1.1,4.6,2.4l2,1.9l0.1,5.4l0.2,5.5h-23.7h-23.7l0.2-5.4l0.1-5.4l1.8-1.8c1.2-1.1,2.7-2,4.2-2.5C113.7,17.7,141,17.6,144.7,18.4z M151.5,45.3v3.9h-23.6h-23.6v-3.9v-3.9h23.6h23.6V45.3z M162,58.7c4.2,2,8.8,6.7,11.1,11.6c1.8,3.8,1.8,3.9,2,11.1l0.2,7.3h-4.7c-4.4,0-4.9,0.1-5.9,1.2c-0.8,0.7-1.2,1.8-1.2,2.7s0.4,2,1.2,2.7c1.1,1.1,1.6,1.2,5.9,1.2h4.7v11.8v11.8h-4.7c-4.3,0-4.8,0.1-5.9,1.2c-1.6,1.6-1.6,3.8,0,5.4c1.1,1.1,1.6,1.2,5.9,1.2h4.7v7.9v7.9h-47.2H80.7v-7.9v-7.9h20.4h20.4l1.2-1.2c1.6-1.6,1.6-3.8,0-5.4l-1.2-1.2h-20.4H80.7v-11.8V96.5h20.4h20.4l1.2-1.2c1.6-1.6,1.6-3.8,0-5.4l-1.2-1.2h-20.5H80.6l0.2-7.3c0.1-7.1,0.2-7.3,1.9-10.9c2.9-6,8.1-10.9,13.4-12.6c1.6-0.5,8.3-0.6,32.5-0.5l30.5,0.1L162,58.7z M175.1,163.3v11.8h-47.2H80.7v-11.8v-11.8h47.2h47.2V163.3z M175.1,194.8v11.8h-4.7c-4.3,0-4.8,0.1-5.9,1.2c-1.6,1.6-1.6,3.8,0,5.4c1.1,1.1,1.5,1.2,5.9,1.2h4.7l-0.2,6c-0.2,4.9-0.4,6.5-1.3,8.6c-1.4,3.3-4.5,6.1-8.2,7.6l-2.9,1.2l-32.4,0.1c-35.3,0.1-36.9,0-41.7-2.5c-5.5-3-7.7-7.6-7.7-16.2v-4.9h20.4h20.4l1.2-1.2c1.6-1.6,1.6-3.8,0-5.4l-1.2-1.2h-20.4H80.7v-11.8V183h47.2h47.2V194.8z"/></g></g></g>
</svg>