<svg xmlns="http://www.w3.org/2000/svg" id="Layer_1-2" width="121.2" height="208.4" viewBox="0 0 121.2 208.4"><path id="Path_4478" data-name="Path 4478" d="M99,0H22.2A22.15,22.15,0,0,0,0,22.2v164a22.214,22.214,0,0,0,22.2,22.2H99a22.214,22.214,0,0,0,22.2-22.2V22.2A22.214,22.214,0,0,0,99,0Zm9.4,186.2a9.389,9.389,0,0,1-9.4,9.4H22.2a9.389,9.389,0,0,1-9.4-9.4V22.2a9.389,9.389,0,0,1,9.4-9.4H52.1a8.519,8.519,0,0,0-.4,2.3,7.9,7.9,0,0,0,15.8,0,8.519,8.519,0,0,0-.4-2.3H99a9.389,9.389,0,0,1,9.4,9.4v164Z"></path><path id="Path_4479" data-name="Path 4479" d="M61.6,59.3c-3.8,0-6.9,2.6-6.9,6.5s3.1,6.3,6.9,6.3c4,0,7-2.5,7-6.3s-3-6.5-7-6.5"></path><path id="Path_4480" data-name="Path 4480" d="M41.3,120.7H79.5V109.4H60.1l19.4-32V75.9H42.7V86.7H61.1L41.3,119.2Z"></path><path id="Path_4481" data-name="Path 4481" d="M59.3,146.6a60.121,60.121,0,0,0,35.8-11.9l-1.4-7.4a65.993,65.993,0,0,1-68.8,0l-1.4,7.4a59.9,59.9,0,0,0,35.8,11.9"></path></svg>